<svg xmlns="http://www.w3.org/2000/svg" xmlns:xlink="http://www.w3.org/1999/xlink" id="svg" version="1.1" viewBox="98.55 13 202.61 199.17"><g id="svgg"><path id="path0" d="M103.722 32.208 C 103.783 39.840,103.833 47.190,103.833 48.542 L 103.833 51.000 114.311 51.000 L 124.789 51.000 150.478 89.534 L 176.168 128.068 176.126 149.576 L 176.083 171.083 161.208 171.126 L 146.333 171.168 146.333 189.084 L 146.333 207.000 199.833 207.000 L 253.333 207.000 253.333 189.083 L 253.333 171.167 238.500 171.167 L 223.667 171.167 223.672 149.542 L 223.678 127.917 249.303 89.500 L 274.928 51.083 285.464 51.040 L 296.000 50.998 296.000 34.665 L 296.000 18.333 257.833 18.333 L 219.667 18.333 219.667 34.665 L 219.667 50.997 227.089 51.040 L 234.511 51.083 233.630 52.421 C 233.146 53.157,231.887 55.095,230.833 56.728 C 229.779 58.361,228.419 60.459,227.811 61.390 C 227.202 62.321,225.785 64.508,224.661 66.250 C 223.538 67.992,222.154 70.129,221.587 71.000 C 221.020 71.871,219.782 73.783,218.836 75.250 C 217.891 76.717,216.652 78.629,216.084 79.500 C 215.515 80.371,214.616 81.758,214.085 82.583 C 213.115 84.091,211.884 85.989,209.631 89.450 C 208.963 90.477,207.704 92.423,206.833 93.776 C 205.963 95.128,204.650 97.156,203.917 98.282 C 203.183 99.408,202.075 101.118,201.455 102.081 C 200.140 104.122,200.219 104.087,199.495 102.958 C 199.186 102.477,198.252 101.033,197.420 99.750 C 196.587 98.467,194.896 95.859,193.661 93.956 C 192.427 92.053,191.169 90.103,190.867 89.623 C 190.565 89.143,189.890 88.093,189.367 87.291 C 185.837 81.871,180.267 73.278,177.672 69.250 C 174.041 63.613,169.256 56.232,167.556 53.646 C 166.795 52.489,166.126 51.420,166.068 51.271 C 165.973 51.023,166.568 51.000,172.982 51.000 L 180.000 51.000 180.000 34.667 L 180.000 18.333 141.806 18.333 L 103.612 18.333 103.722 32.208 M175.833 34.665 L 175.833 46.830 167.007 46.874 L 158.182 46.917 159.299 48.618 C 159.914 49.554,161.182 51.504,162.117 52.951 C 163.052 54.399,164.792 57.083,165.983 58.917 C 167.175 60.750,168.534 62.850,169.003 63.583 C 169.472 64.317,170.544 65.981,171.386 67.282 C 174.158 71.567,177.707 77.043,179.302 79.500 C 180.165 80.829,181.369 82.686,181.977 83.626 C 182.586 84.566,183.995 86.741,185.109 88.459 C 186.223 90.178,187.620 92.333,188.213 93.250 C 188.806 94.167,189.851 95.779,190.536 96.833 C 191.221 97.888,192.217 99.425,192.749 100.250 C 193.281 101.075,194.108 102.350,194.587 103.083 C 197.756 107.943,199.871 111.238,199.947 111.436 C 200.100 111.834,200.222 111.706,201.355 109.956 C 201.962 109.018,203.165 107.162,204.028 105.833 C 204.891 104.504,206.593 101.879,207.809 100.000 C 209.026 98.121,210.992 95.083,212.179 93.250 C 213.366 91.417,215.064 88.792,215.953 87.417 C 216.842 86.042,218.253 83.867,219.088 82.583 C 219.923 81.300,221.308 79.162,222.165 77.833 C 223.023 76.504,224.261 74.592,224.917 73.583 C 225.573 72.575,226.473 71.188,226.916 70.500 C 228.400 68.200,230.073 65.617,231.250 63.809 C 231.892 62.823,233.129 60.910,234.000 59.558 C 234.871 58.205,236.183 56.179,236.917 55.054 C 239.627 50.896,241.427 48.104,241.801 47.478 L 242.186 46.833 233.009 46.833 L 223.833 46.833 223.833 34.667 L 223.833 22.500 257.834 22.500 L 291.836 22.500 291.793 34.625 L 291.750 46.750 282.202 46.833 L 272.654 46.917 245.994 86.903 L 219.333 126.890 219.333 151.112 L 219.333 175.333 234.250 175.333 L 249.167 175.333 249.167 189.000 L 249.167 202.667 199.917 202.667 L 150.667 202.667 150.667 189.000 L 150.667 175.333 165.500 175.333 L 180.333 175.333 180.333 151.042 L 180.333 126.751 153.708 86.797 L 127.083 46.843 117.542 46.838 L 108.000 46.833 108.000 42.292 C 107.999 39.794,107.950 34.319,107.889 30.125 L 107.779 22.500 141.806 22.500 L 175.833 22.500 175.833 34.665 " stroke="none" fill="#fcfcfc" fill-rule="evenodd"/><path id="path1" d="M103.553 19.333 C 103.553 19.929,103.584 20.173,103.621 19.875 C 103.658 19.577,103.658 19.090,103.621 18.792 C 103.584 18.494,103.553 18.737,103.553 19.333 M291.707 34.625 L 291.667 46.667 282.177 46.667 C 276.957 46.667,272.652 46.723,272.609 46.792 C 272.567 46.860,276.840 46.897,282.105 46.872 C 289.511 46.838,291.697 46.781,291.758 46.622 C 291.801 46.509,291.816 41.054,291.792 34.500 L 291.748 22.583 291.707 34.625 M112.708 46.792 C 115.344 46.817,119.656 46.817,122.292 46.792 C 124.927 46.766,122.771 46.745,117.500 46.745 C 112.229 46.745,110.073 46.766,112.708 46.792 M162.553 46.792 C 165.012 46.818,168.987 46.818,171.387 46.792 C 173.787 46.766,171.775 46.744,166.917 46.744 C 162.058 46.744,160.095 46.766,162.553 46.792 M228.470 46.792 C 231.066 46.817,235.266 46.817,237.804 46.792 C 240.341 46.766,238.217 46.745,233.083 46.745 C 227.950 46.745,225.874 46.766,228.470 46.792 M104.125 51.118 C 104.331 51.157,104.669 51.157,104.875 51.118 C 105.081 51.078,104.912 51.045,104.500 51.045 C 104.087 51.045,103.919 51.078,104.125 51.118 M106.125 51.121 C 106.423 51.158,106.910 51.158,107.208 51.121 C 107.506 51.084,107.263 51.053,106.667 51.053 C 106.071 51.053,105.827 51.084,106.125 51.121 M108.625 51.121 C 108.923 51.158,109.410 51.158,109.708 51.121 C 110.006 51.084,109.763 51.053,109.167 51.053 C 108.571 51.053,108.327 51.084,108.625 51.121 M111.125 51.121 C 111.423 51.158,111.910 51.158,112.208 51.121 C 112.506 51.084,112.263 51.053,111.667 51.053 C 111.071 51.053,110.827 51.084,111.125 51.121 M113.625 51.121 C 113.923 51.158,114.410 51.158,114.708 51.121 C 115.006 51.084,114.763 51.053,114.167 51.053 C 113.571 51.053,113.327 51.084,113.625 51.121 M116.125 51.121 C 116.423 51.158,116.910 51.158,117.208 51.121 C 117.506 51.084,117.263 51.053,116.667 51.053 C 116.071 51.053,115.827 51.084,116.125 51.121 M118.625 51.121 C 118.923 51.158,119.410 51.158,119.708 51.121 C 120.006 51.084,119.763 51.053,119.167 51.053 C 118.571 51.053,118.327 51.084,118.625 51.121 M121.125 51.121 C 121.423 51.158,121.910 51.158,122.208 51.121 C 122.506 51.084,122.263 51.053,121.667 51.053 C 121.071 51.053,120.827 51.084,121.125 51.121 M123.542 51.119 C 123.794 51.158,124.206 51.158,124.458 51.119 C 124.710 51.081,124.504 51.050,124.000 51.050 C 123.496 51.050,123.290 51.081,123.542 51.119 M166.000 51.144 C 166.000 51.223,166.188 51.251,166.417 51.207 C 166.646 51.164,166.833 51.099,166.833 51.064 C 166.833 51.029,166.646 51.000,166.417 51.000 C 166.188 51.000,166.000 51.065,166.000 51.144 M167.792 51.121 C 168.090 51.158,168.577 51.158,168.875 51.121 C 169.173 51.084,168.929 51.053,168.333 51.053 C 167.737 51.053,167.494 51.084,167.792 51.121 M170.292 51.121 C 170.590 51.158,171.077 51.158,171.375 51.121 C 171.673 51.084,171.429 51.053,170.833 51.053 C 170.237 51.053,169.994 51.084,170.292 51.121 M172.792 51.121 C 173.090 51.158,173.577 51.158,173.875 51.121 C 174.173 51.084,173.929 51.053,173.333 51.053 C 172.737 51.053,172.494 51.084,172.792 51.121 M175.292 51.121 C 175.590 51.158,176.077 51.158,176.375 51.121 C 176.673 51.084,176.429 51.053,175.833 51.053 C 175.237 51.053,174.994 51.084,175.292 51.121 M177.792 51.121 C 178.090 51.158,178.577 51.158,178.875 51.121 C 179.173 51.084,178.929 51.053,178.333 51.053 C 177.737 51.053,177.494 51.084,177.792 51.121 M220.292 51.121 C 220.590 51.158,221.077 51.158,221.375 51.121 C 221.673 51.084,221.429 51.053,220.833 51.053 C 220.237 51.053,219.994 51.084,220.292 51.121 M222.792 51.121 C 223.090 51.158,223.577 51.158,223.875 51.121 C 224.173 51.084,223.929 51.053,223.333 51.053 C 222.737 51.053,222.494 51.084,222.792 51.121 M225.292 51.121 C 225.590 51.158,226.077 51.158,226.375 51.121 C 226.673 51.084,226.429 51.053,225.833 51.053 C 225.237 51.053,224.994 51.084,225.292 51.121 M227.792 51.121 C 228.090 51.158,228.577 51.158,228.875 51.121 C 229.173 51.084,228.929 51.053,228.333 51.053 C 227.737 51.053,227.494 51.084,227.792 51.121 M230.292 51.121 C 230.590 51.158,231.077 51.158,231.375 51.121 C 231.673 51.084,231.429 51.053,230.833 51.053 C 230.237 51.053,229.994 51.084,230.292 51.121 M232.792 51.121 C 233.090 51.158,233.577 51.158,233.875 51.121 C 234.173 51.084,233.929 51.053,233.333 51.053 C 232.737 51.053,232.494 51.084,232.792 51.121 M275.208 51.115 C 275.369 51.157,275.631 51.157,275.792 51.115 C 275.952 51.073,275.821 51.039,275.500 51.039 C 275.179 51.039,275.048 51.073,275.208 51.115 M276.958 51.121 C 277.256 51.158,277.744 51.158,278.042 51.121 C 278.340 51.084,278.096 51.053,277.500 51.053 C 276.904 51.053,276.660 51.084,276.958 51.121 M279.458 51.121 C 279.756 51.158,280.244 51.158,280.542 51.121 C 280.840 51.084,280.596 51.053,280.000 51.053 C 279.404 51.053,279.160 51.084,279.458 51.121 M281.958 51.121 C 282.256 51.158,282.744 51.158,283.042 51.121 C 283.340 51.084,283.096 51.053,282.500 51.053 C 281.904 51.053,281.660 51.084,281.958 51.121 M284.458 51.121 C 284.756 51.158,285.244 51.158,285.542 51.121 C 285.840 51.084,285.596 51.053,285.000 51.053 C 284.404 51.053,284.160 51.084,284.458 51.121 M286.958 51.121 C 287.256 51.158,287.744 51.158,288.042 51.121 C 288.340 51.084,288.096 51.053,287.500 51.053 C 286.904 51.053,286.660 51.084,286.958 51.121 M289.458 51.121 C 289.756 51.158,290.244 51.158,290.542 51.121 C 290.840 51.084,290.596 51.053,290.000 51.053 C 289.404 51.053,289.160 51.084,289.458 51.121 M291.958 51.121 C 292.256 51.158,292.744 51.158,293.042 51.121 C 293.340 51.084,293.096 51.053,292.500 51.053 C 291.904 51.053,291.660 51.084,291.958 51.121 M294.458 51.121 C 294.756 51.158,295.244 51.158,295.542 51.121 C 295.840 51.084,295.596 51.053,295.000 51.053 C 294.404 51.053,294.160 51.084,294.458 51.121 M176.081 149.417 C 176.081 161.242,176.101 166.104,176.125 160.221 C 176.149 154.339,176.149 144.664,176.125 138.721 C 176.101 132.779,176.081 137.592,176.081 149.417 " stroke="none" fill="#7494b4" fill-rule="evenodd"/><path id="path2" d="M141.833 18.291 L 179.998 18.334 180.042 34.667 L 180.086 51.000 180.085 34.625 L 180.083 18.250 141.875 18.249 L 103.667 18.249 141.833 18.291 M219.577 18.375 C 219.533 18.490,219.517 25.896,219.541 34.833 L 219.585 51.083 219.626 34.709 L 219.667 18.334 257.875 18.292 L 296.083 18.249 257.870 18.208 C 227.422 18.175,219.640 18.209,219.577 18.375 M107.907 27.500 C 107.907 30.296,107.930 31.440,107.958 30.042 C 107.986 28.644,107.986 26.356,107.958 24.958 C 107.930 23.560,107.907 24.704,107.907 27.500 M103.743 44.000 C 103.743 47.896,103.765 49.490,103.791 47.542 C 103.818 45.594,103.818 42.406,103.791 40.458 C 103.765 38.510,103.743 40.104,103.743 44.000 M180.414 151.083 C 180.414 164.467,180.434 169.966,180.458 163.305 C 180.482 156.643,180.482 145.693,180.458 138.971 C 180.434 132.250,180.414 137.700,180.414 151.083 M153.708 171.125 C 157.810 171.150,164.523 171.150,168.625 171.125 C 172.727 171.100,169.371 171.080,161.167 171.080 C 152.962 171.080,149.606 171.100,153.708 171.125 M238.499 171.125 L 253.332 171.168 253.375 189.084 L 253.419 207.000 253.418 189.042 L 253.417 171.083 238.542 171.082 L 223.667 171.081 238.499 171.125 " stroke="none" fill="#ccd4e4" fill-rule="evenodd"/><path id="path3" d="M296.080 34.583 C 296.080 43.658,296.100 47.346,296.125 42.779 C 296.150 38.212,296.150 30.787,296.125 26.279 C 296.100 21.771,296.080 25.508,296.080 34.583 M103.573 26.667 C 103.573 29.096,103.596 30.090,103.625 28.875 C 103.653 27.660,103.653 25.673,103.625 24.458 C 103.596 23.244,103.573 24.238,103.573 26.667 M141.791 22.625 L 175.664 22.667 175.709 34.709 L 175.753 46.750 175.752 34.667 L 175.750 22.583 141.833 22.583 L 107.917 22.582 141.791 22.625 M223.910 22.708 C 223.866 22.823,223.850 28.279,223.875 34.833 L 223.919 46.750 223.959 34.709 L 224.000 22.667 257.875 22.625 L 291.750 22.583 257.870 22.541 C 230.889 22.508,223.973 22.542,223.910 22.708 M108.074 41.583 C 108.074 44.425,108.097 45.611,108.125 44.219 C 108.152 42.827,108.153 40.502,108.125 39.052 C 108.097 37.603,108.074 38.742,108.074 41.583 M158.138 175.458 C 162.292 175.483,169.042 175.483,173.138 175.458 C 177.233 175.433,173.833 175.413,165.583 175.413 C 157.333 175.413,153.983 175.433,158.138 175.458 M234.166 175.458 L 248.998 175.502 249.042 188.959 L 249.086 202.417 249.085 188.917 L 249.083 175.417 234.208 175.415 L 219.333 175.414 234.166 175.458 " stroke="none" fill="#4c6c94" fill-rule="evenodd"/><path id="path4" d="M98.594 13.150 C 98.542 13.233,98.539 19.027,98.585 26.025 C 98.631 33.024,98.668 42.669,98.668 47.458 L 98.667 56.167 110.375 56.171 L 122.083 56.175 123.750 58.765 C 124.667 60.189,125.498 61.445,125.598 61.555 C 125.697 61.665,126.106 62.279,126.507 62.919 C 126.907 63.559,127.283 64.121,127.342 64.167 C 127.401 64.212,127.776 64.775,128.176 65.417 C 128.575 66.058,128.950 66.621,129.009 66.667 C 129.068 66.712,129.327 67.086,129.584 67.496 C 129.842 67.907,130.153 68.343,130.276 68.467 C 130.399 68.590,130.500 68.798,130.500 68.929 C 130.500 69.060,130.561 69.167,130.636 69.167 C 130.711 69.167,130.940 69.465,131.145 69.831 C 131.350 70.196,131.610 70.589,131.723 70.706 C 131.835 70.822,132.256 71.441,132.658 72.081 C 133.059 72.721,133.488 73.345,133.611 73.468 C 133.733 73.590,133.833 73.791,133.833 73.915 C 133.833 74.038,133.895 74.164,133.970 74.194 C 134.044 74.225,134.792 75.300,135.630 76.583 C 136.468 77.867,137.222 78.997,137.305 79.095 C 137.388 79.193,137.782 79.793,138.179 80.428 C 138.577 81.063,138.950 81.621,139.009 81.667 C 139.068 81.712,139.327 82.086,139.584 82.496 C 139.842 82.907,140.153 83.343,140.276 83.467 C 140.399 83.590,140.500 83.791,140.500 83.915 C 140.500 84.038,140.559 84.164,140.630 84.194 C 140.804 84.268,142.167 86.330,142.167 86.519 C 142.167 86.600,142.228 86.667,142.303 86.667 C 142.377 86.667,142.598 86.948,142.793 87.292 C 142.988 87.635,143.267 88.067,143.413 88.250 C 143.560 88.433,144.463 89.783,145.421 91.250 C 146.378 92.717,147.270 94.067,147.402 94.250 C 148.057 95.161,148.833 96.382,148.833 96.503 C 148.833 96.578,148.892 96.664,148.964 96.694 C 149.137 96.768,150.500 98.830,150.500 99.019 C 150.500 99.100,150.561 99.167,150.636 99.167 C 150.711 99.167,150.940 99.465,151.145 99.831 C 151.350 100.196,151.610 100.589,151.723 100.706 C 151.835 100.822,152.256 101.441,152.658 102.081 C 153.059 102.721,153.488 103.345,153.611 103.468 C 153.733 103.590,153.833 103.791,153.833 103.915 C 153.833 104.038,153.892 104.164,153.965 104.194 C 154.132 104.265,157.167 108.822,157.167 109.003 C 157.167 109.078,157.230 109.164,157.308 109.194 C 157.386 109.225,157.776 109.775,158.176 110.417 C 158.575 111.058,158.950 111.621,159.009 111.667 C 159.068 111.712,159.327 112.086,159.584 112.496 C 159.842 112.907,160.153 113.343,160.276 113.467 C 160.399 113.590,160.500 113.798,160.500 113.929 C 160.500 114.060,160.575 114.167,160.667 114.167 C 160.758 114.167,160.833 114.273,160.833 114.403 C 160.833 114.533,160.890 114.664,160.958 114.694 C 161.140 114.775,162.167 116.314,162.167 116.505 C 162.167 116.594,162.228 116.667,162.303 116.667 C 162.377 116.667,162.607 116.965,162.812 117.331 C 163.017 117.696,163.277 118.089,163.389 118.206 C 163.502 118.322,163.922 118.941,164.324 119.581 C 164.726 120.221,165.155 120.845,165.277 120.968 C 165.400 121.090,165.500 121.259,165.500 121.343 C 165.500 121.427,165.608 121.628,165.740 121.790 C 166.214 122.369,168.833 126.373,168.833 126.518 C 168.833 126.600,168.908 126.667,169.000 126.667 C 169.092 126.667,169.167 126.773,169.167 126.903 C 169.167 127.033,169.223 127.164,169.292 127.194 C 169.432 127.257,170.500 128.793,170.500 128.933 C 170.500 128.983,170.612 129.136,170.750 129.274 C 170.969 129.493,171.000 131.772,171.000 147.762 L 171.000 166.000 156.083 166.000 L 141.165 166.000 141.208 189.042 L 141.250 212.083 199.874 212.125 L 258.498 212.167 258.541 189.084 L 258.583 166.000 243.708 166.000 L 228.833 166.000 228.833 147.753 L 228.833 129.506 229.458 128.566 C 229.802 128.049,230.402 127.129,230.793 126.521 C 231.183 125.914,231.596 125.304,231.711 125.167 C 231.827 125.029,232.250 124.392,232.652 123.750 C 233.055 123.108,233.431 122.546,233.489 122.500 C 233.547 122.454,233.852 122.004,234.167 121.500 C 234.481 120.996,234.786 120.546,234.844 120.500 C 234.902 120.454,235.276 119.892,235.676 119.250 C 236.075 118.608,236.450 118.046,236.509 118.000 C 236.568 117.954,236.943 117.392,237.342 116.750 C 237.742 116.108,238.117 115.546,238.176 115.500 C 238.235 115.454,238.610 114.892,239.009 114.250 C 239.408 113.608,239.784 113.046,239.843 113.000 C 239.903 112.954,240.348 112.279,240.833 111.500 C 241.318 110.721,241.763 110.046,241.821 110.000 C 241.880 109.954,242.186 109.504,242.502 109.000 C 242.819 108.496,243.135 108.058,243.205 108.028 C 243.276 107.997,243.333 107.866,243.333 107.736 C 243.333 107.606,243.390 107.499,243.458 107.498 C 243.527 107.496,243.846 107.047,244.167 106.500 C 244.487 105.953,244.806 105.504,244.875 105.502 C 244.944 105.501,245.000 105.394,245.000 105.264 C 245.000 105.134,245.058 105.003,245.128 104.972 C 245.198 104.942,245.515 104.504,245.831 104.000 C 246.147 103.496,246.453 103.046,246.511 103.000 C 246.569 102.954,246.943 102.392,247.342 101.750 C 247.742 101.108,248.117 100.546,248.176 100.500 C 248.235 100.454,248.610 99.892,249.009 99.250 C 249.408 98.608,249.783 98.046,249.842 98.000 C 249.901 97.954,250.273 97.392,250.669 96.750 C 251.065 96.108,251.514 95.433,251.667 95.250 C 251.819 95.067,252.268 94.392,252.664 93.750 C 253.060 93.108,253.431 92.546,253.489 92.500 C 253.547 92.454,253.852 92.004,254.167 91.500 C 254.481 90.996,254.786 90.546,254.844 90.500 C 254.902 90.454,255.276 89.892,255.676 89.250 C 256.075 88.608,256.450 88.046,256.509 88.000 C 256.568 87.954,256.943 87.392,257.342 86.750 C 257.742 86.108,258.117 85.546,258.176 85.500 C 258.235 85.454,258.610 84.892,259.009 84.250 C 259.408 83.608,259.783 83.046,259.842 83.000 C 259.901 82.954,260.273 82.392,260.669 81.750 C 261.065 81.108,261.514 80.433,261.667 80.250 C 261.819 80.067,262.268 79.392,262.664 78.750 C 263.060 78.108,263.431 77.546,263.489 77.500 C 263.547 77.454,263.852 77.004,264.167 76.500 C 264.481 75.996,264.786 75.546,264.844 75.500 C 264.902 75.454,265.276 74.892,265.676 74.250 C 266.075 73.608,266.450 73.046,266.509 73.000 C 266.568 72.954,266.943 72.392,267.342 71.750 C 267.742 71.108,268.117 70.546,268.176 70.500 C 268.235 70.454,268.610 69.892,269.009 69.250 C 269.408 68.608,269.783 68.046,269.842 68.000 C 269.901 67.954,270.279 67.392,270.681 66.750 C 271.083 66.108,271.507 65.471,271.622 65.333 C 271.820 65.098,272.362 64.271,273.917 61.838 C 274.283 61.264,274.665 60.709,274.764 60.603 C 274.864 60.498,275.273 59.888,275.673 59.248 C 276.074 58.607,276.451 58.046,276.512 58.000 C 276.573 57.954,276.864 57.523,277.159 57.042 L 277.695 56.167 289.431 56.167 L 301.167 56.167 301.167 34.583 L 301.167 13.000 257.833 13.000 L 214.500 13.000 214.500 34.583 L 214.500 56.167 219.747 56.167 L 224.993 56.167 224.705 56.657 C 223.988 57.876,222.419 60.255,222.299 60.306 C 222.226 60.336,222.167 60.462,222.167 60.585 C 222.167 60.709,222.064 60.912,221.939 61.038 C 221.813 61.163,221.128 62.200,220.415 63.341 C 219.702 64.483,219.070 65.454,219.010 65.500 C 218.951 65.546,218.458 66.296,217.917 67.167 C 217.375 68.037,216.886 68.787,216.831 68.833 C 216.775 68.879,216.437 69.404,216.078 70.000 C 215.720 70.596,215.121 71.533,214.747 72.083 C 214.373 72.633,213.775 73.571,213.419 74.167 C 213.062 74.762,212.720 75.287,212.659 75.333 C 212.598 75.379,212.152 76.051,211.668 76.827 C 211.183 77.602,210.685 78.339,210.560 78.464 C 210.435 78.588,210.333 78.791,210.333 78.915 C 210.333 79.038,210.269 79.164,210.191 79.194 C 210.113 79.225,209.535 80.075,208.906 81.083 C 208.278 82.092,207.704 82.942,207.632 82.972 C 207.559 83.003,207.500 83.089,207.500 83.163 C 207.500 83.238,207.064 83.963,206.531 84.774 C 205.998 85.586,205.252 86.737,204.873 87.333 C 204.494 87.929,204.105 88.507,204.009 88.618 C 203.912 88.729,203.833 88.892,203.833 88.981 C 203.833 89.070,203.732 89.244,203.608 89.368 C 203.484 89.492,202.868 90.416,202.238 91.422 C 201.609 92.427,200.961 93.394,200.799 93.571 C 200.637 93.748,200.460 94.029,200.407 94.196 C 200.290 94.565,200.070 94.590,199.939 94.248 C 199.886 94.109,199.514 93.491,199.114 92.873 C 198.713 92.255,198.003 91.150,197.536 90.417 C 197.069 89.683,196.623 89.008,196.546 88.917 C 196.469 88.825,195.891 87.927,195.262 86.922 C 194.632 85.916,194.016 84.992,193.892 84.868 C 193.768 84.744,193.667 84.542,193.667 84.419 C 193.667 84.295,193.603 84.169,193.525 84.139 C 193.446 84.108,192.869 83.258,192.242 82.250 C 191.614 81.242,191.056 80.379,191.001 80.333 C 190.946 80.287,190.380 79.425,189.743 78.417 C 188.100 75.816,187.536 74.941,187.378 74.750 C 187.302 74.658,186.725 73.758,186.095 72.750 C 185.466 71.742,184.902 70.879,184.842 70.833 C 184.782 70.787,184.219 69.925,183.592 68.917 C 182.964 67.908,182.404 67.046,182.347 67.000 C 182.290 66.954,181.610 65.904,180.837 64.667 C 180.063 63.429,179.123 61.967,178.747 61.417 C 178.372 60.867,177.621 59.704,177.079 58.833 C 176.538 57.962,176.036 57.225,175.964 57.194 C 175.892 57.164,175.833 57.065,175.833 56.974 C 175.833 56.884,175.707 56.684,175.553 56.530 C 175.291 56.268,175.595 56.247,180.303 56.206 L 185.333 56.162 185.333 34.682 C 185.333 15.249,185.308 13.193,185.070 13.101 C 184.636 12.935,98.696 12.984,98.594 13.150 M180.167 34.665 L 180.167 51.163 173.159 51.207 L 166.152 51.250 167.728 53.667 C 169.349 56.152,169.782 56.819,173.833 63.083 C 175.137 65.100,176.718 67.537,177.346 68.500 C 177.973 69.462,179.235 71.412,180.149 72.833 C 181.063 74.254,182.521 76.504,183.389 77.833 C 184.257 79.162,186.296 82.313,187.921 84.833 C 189.546 87.354,191.387 90.204,192.013 91.167 C 195.612 96.699,197.627 99.812,198.782 101.624 C 199.498 102.746,200.125 103.664,200.175 103.665 C 200.274 103.667,201.661 101.557,206.750 93.670 C 208.524 90.920,209.765 89.005,212.152 85.333 C 212.778 84.371,214.137 82.271,215.173 80.667 C 216.209 79.063,217.542 77.000,218.137 76.083 C 222.351 69.584,223.298 68.122,224.830 65.750 C 225.777 64.283,226.942 62.483,227.419 61.750 C 227.895 61.017,229.207 58.992,230.333 57.250 C 231.460 55.508,232.783 53.469,233.274 52.717 C 233.765 51.966,234.167 51.309,234.167 51.259 C 234.167 51.208,230.867 51.167,226.833 51.167 L 219.500 51.167 219.500 34.667 L 219.500 18.167 257.834 18.167 L 296.168 18.167 296.126 34.625 L 296.083 51.083 285.557 51.126 L 275.030 51.169 249.348 89.695 L 223.665 128.221 223.708 149.569 L 223.750 170.917 238.625 170.959 L 253.500 171.002 253.500 189.001 L 253.500 207.000 199.875 207.000 L 146.250 207.000 146.259 189.042 L 146.269 171.083 161.134 171.041 L 176.000 170.998 176.000 149.524 L 176.000 128.050 150.375 89.609 L 124.750 51.169 114.208 51.168 L 103.667 51.167 103.665 44.958 C 103.665 41.544,103.615 34.119,103.556 28.458 L 103.447 18.167 141.807 18.167 L 180.167 18.167 180.167 34.665 M108.000 27.042 C 108.000 29.448,108.050 34.848,108.111 39.042 L 108.221 46.667 117.661 46.667 L 127.101 46.667 153.801 86.718 L 180.500 126.768 180.500 151.134 L 180.500 175.500 165.582 175.500 L 150.665 175.500 150.707 189.042 L 150.750 202.583 199.875 202.625 L 249.000 202.667 249.000 189.084 L 249.000 175.500 234.167 175.500 L 219.333 175.500 219.333 151.083 L 219.333 126.666 246.003 86.666 L 272.672 46.667 282.170 46.667 L 291.667 46.667 291.667 34.667 L 291.667 22.667 257.833 22.667 L 224.000 22.667 224.000 34.667 L 224.000 46.667 233.184 46.667 C 241.128 46.667,242.356 46.699,242.277 46.908 C 242.171 47.182,240.293 50.123,238.332 53.083 C 237.603 54.183,236.949 55.196,236.879 55.333 C 236.808 55.471,236.236 56.371,235.607 57.333 C 234.978 58.296,233.979 59.833,233.386 60.750 C 231.648 63.439,229.352 66.981,228.415 68.417 C 227.937 69.150,225.888 72.314,223.862 75.448 C 221.835 78.581,219.699 81.881,219.114 82.781 C 218.529 83.681,217.203 85.729,216.166 87.333 C 210.793 95.651,208.707 98.873,204.611 105.178 C 203.862 106.331,202.587 108.299,201.776 109.553 C 200.966 110.807,200.253 111.832,200.193 111.830 C 200.133 111.829,199.521 110.960,198.833 109.899 C 197.263 107.476,194.131 102.634,192.160 99.583 C 191.331 98.300,189.944 96.162,189.078 94.833 C 188.211 93.504,187.048 91.704,186.492 90.833 C 185.936 89.962,184.888 88.350,184.163 87.250 C 183.438 86.150,182.540 84.762,182.167 84.167 C 181.794 83.571,180.805 82.033,179.970 80.750 C 179.134 79.467,177.725 77.292,176.838 75.917 C 175.952 74.542,173.507 70.772,171.405 67.539 C 169.303 64.306,167.471 61.482,167.333 61.263 C 167.064 60.835,165.741 58.787,162.748 54.167 C 159.355 48.927,158.084 46.946,158.028 46.805 C 157.997 46.729,161.953 46.667,166.819 46.667 L 175.667 46.667 175.667 34.667 L 175.667 22.667 141.833 22.667 L 108.000 22.667 108.000 27.042 " stroke="none" fill="#04346c" fill-rule="evenodd"/></g></svg>